<?xml version="1.0" encoding="iso-8859-1"?>
<!-- Generator: Adobe Illustrator 19.0.0, SVG Export Plug-In . SVG Version: 6.00 Build 0)  -->
<svg version="1.1" id="Capa_1" xmlns="http://www.w3.org/2000/svg" xmlns:xlink="http://www.w3.org/1999/xlink" x="0px" y="0px"
	 viewBox="0 0 480.013 480.013" style="enable-background:new 0 0 480.013 480.013;" xml:space="preserve">
<g>
	<g>
		<path d="M479.754,309.949l-32-120c-0.68-2.568-2.6-4.624-5.112-5.504c-2.504-0.848-5.288-0.432-7.416,1.168l-96,72
			c-0.976,0.728-1.656,1.688-2.2,2.712c-0.064,0.128-0.208,0.2-0.272,0.328l-21.224,45.984l28.432-241.696
			c0.064-0.544,0-1.072-0.048-1.608c-0.008-0.12,0.048-0.232,0.032-0.352c-0.008-0.048-0.04-0.088-0.048-0.136
			c-0.16-1.064-0.552-2.048-1.104-2.96c-0.128-0.208-0.256-0.384-0.4-0.584c-0.632-0.864-1.384-1.656-2.352-2.216l-96-56
			c-2.648-1.536-5.92-1.432-8.472,0.256l-96,64c-0.856,0.576-1.528,1.328-2.096,2.152c-0.12,0.176-0.24,0.336-0.344,0.528
			c-0.488,0.848-0.84,1.76-0.992,2.736c-0.008,0.056-0.048,0.096-0.056,0.144c-0.016,0.12,0.04,0.24,0.024,0.36
			c-0.04,0.456-0.112,0.912-0.072,1.376l14.024,175.32L85.13,193.845c-1.8-1.496-4.16-2.12-6.456-1.744
			c-2.304,0.392-4.32,1.776-5.52,3.776l-72,120c-0.632,1.048-0.992,2.216-1.104,3.4c-0.032,0.392,0.128,0.776,0.152,1.176
			c0.048,0.776,0.024,1.56,0.296,2.312l52.056,141.248H32.026v16h32h16h96h72h96h8h32v-16h-16l110.4-147.2
			c0.12-0.16,0.128-0.368,0.24-0.536c0.432-0.672,0.744-1.384,0.96-2.152c0.088-0.312,0.2-0.584,0.248-0.904
			C480.034,312.149,480.05,311.053,479.754,309.949z M423.786,214.197l-40.728,116.368l-29.088-64.008L423.786,214.197z
			 M240.314,17.445l82.712,48.248l-54.312,54.32h-73.008l-39.728-46.352L240.314,17.445z M154.442,272.445c0,0,0,0,0.008,0.008
			l8.56,7.136l-67.816,49.32l-6.16-110.968L154.442,272.445z M73.482,226.469l5.92,106.608l-59.224-17.76L73.482,226.469z
			 M80.026,464.013H69.602L21.074,332.277l60.856,18.256l42.552,113.48H80.026z M168.026,464.013H141.57L97.65,346.901
			l70.376-51.176V464.013z M184.026,464.013v-184c0-0.76-0.28-1.448-0.48-2.16c-0.112-0.384-0.096-0.8-0.256-1.168
			c-0.496-1.072-1.208-2.04-2.136-2.816l-13.872-11.56L153.97,95.893l30.272,35.312l23.208,332.808H184.026z M240.578,464.013
			H223.49l-22.88-328h62.848L240.578,464.013z M279.794,131.557l45.592-45.592l-31.472,267.528l-34.872,75.56L279.794,131.557z
			 M260.53,464.013l48.448-104.96v-0.008l34.992-75.816l31.144,68.504l-59.888,112.28H260.53z M348.026,464.013h-4h-10.664
			l56.448-105.84l57.048-25.928L348.026,464.013z M397.762,336.981l41.232-117.8l23.56,88.352L397.762,336.981z"/>
	</g>
</g>
<g>
	<g>
		<path d="M88.026,40.013c-17.648,0-32-14.352-32-32c0-4.424-3.584-8-8-8s-8,3.576-8,8c0,17.648-14.352,32-32,32
			c-4.416,0-8,3.576-8,8s3.584,8,8,8c17.648,0,32,14.352,32,32c0,4.424,3.584,8,8,8s8-3.576,8-8c0-17.648,14.352-32,32-32
			c4.416,0,8-3.576,8-8S92.442,40.013,88.026,40.013z M48.026,61.509c-3.552-5.344-8.152-9.944-13.496-13.496
			c5.344-3.552,9.944-8.152,13.496-13.496c3.552,5.344,8.152,9.944,13.496,13.496C56.178,51.565,51.578,56.165,48.026,61.509z"/>
	</g>
</g>
<g>
	<g>
		<path d="M456.026,104.013c-17.648,0-32-14.352-32-32c0-4.424-3.584-8-8-8c-4.416,0-8,3.576-8,8c0,17.648-14.352,32-32,32
			c-4.416,0-8,3.576-8,8s3.584,8,8,8c17.648,0,32,14.352,32,32c0,4.424,3.584,8,8,8c4.416,0,8-3.576,8-8c0-17.648,14.352-32,32-32
			c4.416,0,8-3.576,8-8S460.442,104.013,456.026,104.013z M416.026,125.509c-3.552-5.344-8.152-9.936-13.496-13.496
			c5.344-3.552,9.944-8.152,13.496-13.496c3.552,5.344,8.152,9.936,13.496,13.496C424.178,115.565,419.586,120.165,416.026,125.509z
			"/>
	</g>
</g>
<g>
	<g>
		<rect x="400.026" y="464.013" width="16" height="16"/>
	</g>
</g>
<g>
	<g>
		<rect x="432.026" y="464.013" width="16" height="16"/>
	</g>
</g>
<g>
</g>
<g>
</g>
<g>
</g>
<g>
</g>
<g>
</g>
<g>
</g>
<g>
</g>
<g>
</g>
<g>
</g>
<g>
</g>
<g>
</g>
<g>
</g>
<g>
</g>
<g>
</g>
<g>
</g>
</svg>
