<?xml version="1.0"?>
<svg xmlns="http://www.w3.org/2000/svg" height="512px" viewBox="0 0 448.17864 448" width="512px"><g><path d="m64.035156 399.660156c0 8.835938-7.160156 16-16 16-8.835937 0-16-7.164062-16-16 0-8.835937 7.164063-16 16-16 8.839844 0 16 7.164063 16 16zm0 0" data-original="#000000" class="active-path" data-old_color="#000000" fill="#15D163"/><path d="m194.964844 75.148438 2.695312 1.65625 22.871094-34.3125-5.007812-2.742188c-9.75-5.433594-22.058594-2.050781-27.664063 7.601562-5.605469 9.652344-2.445313 22.019532 7.105469 27.796876zm0 0" data-original="#000000" class="active-path" data-old_color="#000000" fill="#15D163"/><path d="m261.246094 137.945312 10.75-21.457031 14.304687 7.167969-10.75 21.457031zm0 0" data-original="#000000" class="active-path" data-old_color="#000000" fill="#15D163"/><path d="m435.132812 35.195312-43.097656 72.203126c-6.539062 10.960937-20.515625 14.882812-31.804687 8.925781l-125.523438-66.214844-26.671875 39.953125v44.238281c-.015625 38.769531-16.5625 75.691407-45.484375 101.503907l-144.113281 128.503906c-9.472656 7.390625-15.851562 18.046875-17.886719 29.886718-2.078125 13.378907 1.796875 26.992188 10.601563 37.273438 8.808594 10.277344 21.667968 16.191406 35.203125 16.191406h2.554687c12.59375-.019531 24.640625-5.152344 33.382813-14.214844l149.601562-162.65625c18.167969-19.796874 41.808594-33.746093 67.917969-40.082031l82.550781-20.09375c38.695313-10.148437 65.671875-45.117187 65.671875-85.121093v-56.992188c1.046875-12.492188-3.710937-24.773438-12.902344-33.304688zm-387.097656 396.464844c-17.671875 0-32-14.328125-32-32s14.328125-32 32-32c17.675782 0 32 14.328125 32 32s-14.324218 32-32 32zm313.371094-279.3125-17.921875 35.769532c-1.359375 2.707031-4.132813 4.410156-7.160156 4.40625-1.242188 0-2.46875-.296876-3.574219-.863282l-85.824219-42.992187c-3.949219-1.980469-5.546875-6.785157-3.570312-10.734375l17.921875-35.761719c.949218-1.902344 2.621094-3.347656 4.636718-4.019531 2.019532-.667969 4.222657-.503906 6.121094.453125l85.824219 43.007812c3.953125 1.980469 5.546875 6.785157 3.570313 10.734375zm0 0" data-original="#000000" class="active-path" data-old_color="#000000" fill="#15D163"/><path d="m312.75 73.1875 45.6875-72.429688c-20.347656-2.441406-40.929688 1.855469-58.601562 12.230469-13.324219 10.285157-25.929688 21.472657-37.726563 33.480469l28.597656 15.085938zm0 0" data-original="#000000" class="active-path" data-old_color="#000000" fill="#15D163"/><path d="m318.460938 166.625 10.75-21.457031 14.304687 7.164062-10.75 21.457031zm0 0" data-original="#000000" class="active-path" data-old_color="#000000" fill="#15D163"/><path d="m289.851562 152.28125 10.75-21.457031 14.304688 7.167969-10.75 21.457031zm0 0" data-original="#000000" class="active-path" data-old_color="#000000" fill="#15D163"/></g> </svg>
